<?xml version="1.0" standalone="no"?>
<!DOCTYPE svg PUBLIC "-//W3C//DTD SVG 20010904//EN"
 "http://www.w3.org/TR/2001/REC-SVG-20010904/DTD/svg10.dtd">
<svg version="1.0" xmlns="http://www.w3.org/2000/svg"
 width="512.000000pt" height="512.000000pt" viewBox="0 0 512.000000 512.000000"
 preserveAspectRatio="xMidYMid meet">

<g transform="translate(0.000000,512.000000) scale(0.100000,-0.100000)"
fill="#000000" stroke="none">
<path d="M3685 5105 c-162 -26 -358 -97 -499 -182 -161 -96 -253 -179 -702
-627 -449 -449 -531 -541 -628 -703 -74 -125 -140 -293 -172 -445 -26 -117
-25 -372 0 -488 53 -243 171 -457 350 -635 100 -99 253 -208 317 -225 129 -35
263 85 245 217 -9 67 -45 116 -128 170 -348 229 -483 600 -361 988 31 99 69
175 141 285 44 68 143 173 486 518 237 239 466 462 508 496 207 166 462 257
683 242 204 -13 365 -83 517 -225 161 -150 244 -310 270 -519 20 -156 -18
-354 -98 -514 -74 -148 -133 -218 -470 -558 -295 -298 -333 -340 -344 -380
-43 -159 91 -293 250 -250 39 10 74 41 279 243 426 422 563 588 659 797 236
511 146 1057 -237 1441 -172 171 -382 288 -611 340 -116 26 -337 33 -455 14z"/>
<path d="M2695 3325 c-5 -2 -22 -6 -38 -9 -41 -9 -103 -71 -123 -122 -21 -56
-13 -124 21 -176 14 -21 60 -60 108 -92 46 -30 117 -91 159 -134 253 -265 306
-625 144 -968 -85 -178 -119 -218 -615 -715 -485 -485 -529 -524 -696 -607
-140 -70 -329 -109 -469 -98 -199 15 -360 86 -508 225 -161 150 -244 310 -270
519 -20 155 17 351 94 507 77 155 133 221 474 565 295 298 333 340 344 380 24
90 -8 178 -83 228 -55 36 -154 38 -208 5 -61 -38 -648 -639 -725 -743 -149
-201 -232 -379 -280 -602 -25 -116 -25 -371 0 -488 80 -372 329 -695 670 -867
184 -93 337 -128 551 -128 283 1 509 72 760 239 141 94 286 228 715 662 359
362 419 430 515 577 346 533 286 1179 -149 1612 -154 153 -323 253 -391 230z"/>
</g>
</svg>
